.
..............................Site Info...........................

 -   http://www.scenetime.com  *_*   

SceneTime is going to Close sign up on march/1, hurry up! get in before the doors are closed.

     We care to share . Join us on  http://www.scenetime.com 

    Be the first to get new release at  http://www.scenetime.com

        Seed back for speed


...................................NFO:.................................................[img]http://img846.imageshack.us/img846/2404/neverlandcustom.jpg[/img]


[color=blue][size=5][b]Neverland.2011.R5.DVDRip.XVID.AC3.HQ.Hive-CM8[/b][/size][/color]


[b] Thx Hive

CM8 Doing It Right The First Time :D


Source: Russian DVD-9
Neverlend.2011.P.DVD.ELEKTRI4KA
(had english audio on it)
thx

Encode:
this movie tells the story of peter pan and captain hook and how the characters were formed.
It ran on syfy a month ago, US retail in march.
Its one of the really good syfy productions with nice cast.
DVD itself had great quality, could do a lot with the video, looks totally like a bdrip now,
added sharpness, brightness, rgb and denoise.

Since its a 2 part movie it had end credits in between part 1 and 2 with runtime
around 4mins which i removed, so now it can be watched like one long movie.
Because of the nearly 3hr runtime i tried to get it around 2gb size.
got very nice - enjoy

Video: 720x400 bitrate 1600 2pass
Audio: English AC3 5.1 @224
Sample: Yes, included[/b]
 
http://www.imdb.com/title/tt1720619/


General
Complete name                  : Neverland.2011.R5.DVDRip.XVID.AC3.HQ.Hive-CM8.avi
Format                         : AVI
Format/Info                    : Audio Video Interleave
Format profile                 : OpenDML
Format settings                : rec
File size                      : 2.08 GiB
Duration                       : 2h 40mn
Overall bit rate               : 1 854 Kbps
Writing application            : AVI-Mux GUI 1.17.7, Aug  8 2006  20:59:17

Video
ID                             : 0
Format                         : MPEG-4 Visual
Format profile                 : Advanced Simple@L5
Format settings, BVOP          : 2
Format settings, QPel          : Yes
Format settings, GMC           : No warppoints
Format settings, Matrix        : Default (H.263)
Muxing mode                    : Packed bitstream
Codec ID                       : XVID
Codec ID/Hint                  : XviD
Duration                       : 2h 40mn
Bit rate                       : 1 593 Kbps
Width                          : 720 pixels
Height                         : 400 pixels
Display aspect ratio           : 16:9
Frame rate                     : 25.000 fps
Color space                    : YUV
Chroma subsampling             : 4:2:0
Bit depth                      : 8 bits
Scan type                      : Progressive
Compression mode               : Lossy
Bits/(Pixel*Frame)             : 0.221
Stream size                    : 1.79 GiB (86%)
Writing library                : XviD 1.2.1 (UTC 2008-12-04)

Audio
ID                             : 1
Format                         : AC-3
Format/Info                    : Audio Coding 3
Mode extension                 : CM (complete main)
Codec ID                       : 2000
Duration                       : 2h 40mn
Bit rate mode                  : Constant
Bit rate                       : 256 Kbps
Channel(s)                     : 6 channels
Channel positions              : Front: L C R, Side: L R, LFE
Sampling rate                  : 48.0 KHz
Bit depth                      : 16 bits
Compression mode               : Lossy
Stream size                    : 294 MiB (14%)
Alignment                      : Aligned on interleaves
Interleave, duration           : 64 ms (1.60 video frames)
Interleave, preload duration   : 192 ms


Plot:
Raised on the streets of turn-of-the century London, orphaned Peter and
his pals survive by their fearless wits as cunning young pickpockets.


Cast:
Rhys Ifans       ...    James Hook
Anna Friel       ...    Captain Elizabeth Bonny
Charles Dance    ...    Dr. Fludd
Charlie Rowe     ...    Peter Pan
Bob Hoskins      ...    Smee


[img]http://img809.imageshack.us/img809/4900/45240483.png[/img]
[img]http://img708.imageshack.us/img708/9066/nlnl.png[/img]
[img]http://img94.imageshack.us/img94/2982/nlnnll.png[/img]
[img]http://img848.imageshack.us/img848/8076/nlnnllnl.png[/img]
[img]http://img32.imageshack.us/img32/206/nlnnllnnll.png[/img]
[img]http://img718.imageshack.us/img718/4330/nlnnllnnlnll.png[/img]
[img]http://img859.imageshack.us/img859/191/nlnnllnnlnnlll.png[/img]
[img]http://img812.imageshack.us/img812/207/nlnnllnnlnnlnlll.png[/img]
[img]http://img513.imageshack.us/img513/4671/nlnnllnnlnnlnlnlll.png[/img]
[img]http://img830.imageshack.us/img830/1644/nlnnllnnlnnlnlnlnlll.png[/img]



Greetz

ViSiON,SPK,SceneLovers,PRESTiGE,SANTi,3LT0N,YanKeeS,COPYxRIGHT,THC,T0XiC
D2U,LKRG,Feel-Free,FLAWL3SS,WBZ,BHRG,26K,NOVA,SeToNeUp,TED,MAGNET,jtr
Unevano,Rapeseed,SAFC,goldadvance,KaN1vE,Pinnz,Wayne
Mr Hive,and most P2P groups
Great Work Guys :D

LOOKING FOR ANYTHING YOU WANT TO LOOK AND SOUND BETTER

CM8@hushmail.com